<svg xmlns="http://www.w3.org/2000/svg" version="1.1" xmlns:xlink="http://www.w3.org/1999/xlink" xmlns:svgjs="http://svgjs.com/svgjs" id="Pattern980SvgRootPreview" width="100%" height="100%"><defs><pattern x="0" y="0" width="1" height="1" patternUnits="userSpaceOnUse" id="Pattern980Layer1"><g id="PatternRootContent1"><g id="Pattern980Layer1background"><rect width="1" height="1" id="Pattern980Background1" class="color_1 fill_color_1" fill="#708c87"></rect></g></g></pattern><pattern x="0" y="0" width="45.416666666666664" height="90.83333333333333" patternUnits="userSpaceOnUse" id="Pattern980Layer2" patternTransform="matrix(3.6739403974420595e-17,0.6,-0.6,3.6739403974420595e-17,0,0)" viewBox="0 0 45.416666666666664 90.83333333333333" preserveAspectRatio="xMidYMid slice"><g id="PatternRootContent2" transform="scale(1.5138888888888888) rotate(0)"><g id="Pattern980Layer2Element1"><use xlink:href="#Pattern980Element1" x="6" y="-39" transform="translate(20, -25) scale(1) translate(-20, 25) rotate(-45, 30, -15)"></use><use xlink:href="#Pattern980Element1" x="-24" y="-39" transform="translate(-10, -25) scale(1) translate(10, 25) rotate(-45, 0, -15)"></use><use xlink:href="#Pattern980Element1" x="-9" y="-9" transform="translate(5, 5) scale(1) translate(-5, -5) rotate(45, 15, 15)"></use><use xlink:href="#Pattern980Element1" x="-39" y="-9" transform="translate(-25, 5) scale(1) translate(25, -5) rotate(45, -15, 15)"></use><use xlink:href="#Pattern980Element1" x="21" y="-9" transform="translate(35, 5) scale(1) translate(-35, -5) rotate(45, 45, 15)"></use><use xlink:href="#Pattern980Element1" x="6" y="21" transform="translate(20, 35) scale(1) translate(-20, -35) rotate(-45, 30, 45)"></use><use xlink:href="#Pattern980Element1" x="-24" y="21" transform="translate(-10, 35) scale(1) translate(10, -35) rotate(-45, 0, 45)"></use><use xlink:href="#Pattern980Element1" x="-9" y="51" transform="translate(5, 65) scale(1) translate(-5, -65) rotate(45, 15, 75)"></use><use xlink:href="#Pattern980Element1" x="-9" y="51" transform="translate(5, 65) scale(1) translate(-5, -65) rotate(45, 15, 75)"></use></g></g></pattern><symbol id="Pattern980Element1"><path d="M38 26H10v-4h28v4z" class="color_2 fill_color_2" fill="#5c7345"></path></symbol></defs><rect width="100%" height="100%" id="Pattern980RctLayer1" fill="url(#Pattern980Layer1)"></rect><rect width="100%" height="100%" id="Pattern980RctLayer2" fill="url(#Pattern980Layer2)"></rect></svg>